<?xml version="1.0" encoding="iso-8859-1"?>
<!-- Generator: Adobe Illustrator 17.1.0, SVG Export Plug-In . SVG Version: 6.00 Build 0)  -->
<!DOCTYPE svg PUBLIC "-//W3C//DTD SVG 1.1//EN" "http://www.w3.org/Graphics/SVG/1.1/DTD/svg11.dtd">
<svg version="1.1" id="Capa_1" xmlns="http://www.w3.org/2000/svg" xmlns:xlink="http://www.w3.org/1999/xlink" x="0px" y="0px"
	 viewBox="0 0 462.522 462.522" style="enable-background:new 0 0 462.522 462.522; fill: #FC427B;" xml:space="preserve">
<path d="M432.958,222.262c-1.452-0.305-2.823-0.592-4.042-0.909c-13.821-3.594-20.129-5.564-24.793-14.569l-17.667-35.768
	c-5.678-10.961-20.339-19.879-32.682-19.879h-31.453v-41.303c0-7.416-6.034-13.45-13.452-13.45l-219.07,0.22
	c-7.218,0-12.661,5.736-12.661,13.343v12.208H21.018C9.429,122.156,0,131.584,0,143.174s9.429,21.018,21.018,21.018h56.119v20.145
	H40.394c-11.589,0-21.018,9.429-21.018,21.018s9.429,21.018,21.018,21.018h36.743v20.145H59.77
	c-11.589,0-21.018,9.429-21.018,21.018s9.429,21.018,21.018,21.018h17.367v21.07c0,7.416,6.034,13.45,13.45,13.45h22.788
	c3.549,24.323,24.542,43.064,49.837,43.064c25.297,0,46.291-18.741,49.841-43.064h92.224c0.479,0,0.97-0.032,1.46-0.064
	c3.522,24.354,24.528,43.128,49.845,43.128c25.297,0,46.291-18.741,49.841-43.064h32.732c12.885,0,23.368-10.482,23.368-23.366
	v-39.648C462.522,228.465,444.73,224.732,432.958,222.262z M356.582,297.46c10.1,0,18.317,8.214,18.317,18.311
	s-8.217,18.311-18.317,18.311c-10.096,0-18.31-8.214-18.31-18.311S346.486,297.46,356.582,297.46z M322.321,219.414v-48.77h24.036
	c9.238,0,20.634,6.932,24.864,15.094l15.721,31.829c0.333,0.644,0.679,1.258,1.038,1.846H322.321z M181.529,315.77
	c0,10.096-8.217,18.311-18.317,18.311c-10.096,0-18.309-8.214-18.309-18.311s8.213-18.311,18.309-18.311
	C173.312,297.46,181.529,305.674,181.529,315.77z"/>
<g>
</g>
<g>
</g>
<g>
</g>
<g>
</g>
<g>
</g>
<g>
</g>
<g>
</g>
<g>
</g>
<g>
</g>
<g>
</g>
<g>
</g>
<g>
</g>
<g>
</g>
<g>
</g>
<g>
</g>
</svg>
