<?xml version="1.0" encoding="iso-8859-1"?>
<!-- Generator: Adobe Illustrator 19.0.0, SVG Export Plug-In . SVG Version: 6.00 Build 0)  -->
<svg version="1.1" id="Capa_1" xmlns="http://www.w3.org/2000/svg" xmlns:xlink="http://www.w3.org/1999/xlink" x="0px" y="0px"
	 viewBox="0 0 376 376" style="enable-background:new 0 0 376 376; fill: #FC427B" xml:space="preserve">
<g>
	<g>
		<path d="M336,44V12H32v32L0,156v18.336c0,16.68,9.896,31.544,24,38.968C24,262.696,24,364,24,364h64V236h64v128h192V216.56
			c18.224-5.384,32-22.536,32-42.224V156L336,44z M44,202.336c-13.184,0-28-10.576-28-30.336h56C72,191.728,57.2,202.336,44,202.336
			z M272,44l16,112c-31.384,0-32.968,0-56,0l-8-112H272z M288,172c0,19.6-14.688,30.336-28,30.336c-13.608,0-28-10.984-28-30.336
			H288z M116,202.336c-13.184,0-28-10.576-28-30.336h56C144,191.728,129.2,202.336,116,202.336z M144,156c-22.256,0-25.392,0-56,0
			l16-112h48L144,156z M160,172h56c0,19.728-14.8,30.336-28,30.336C174.816,202.336,160,191.76,160,172z M312,332H184v-96h128V332z
			 M332,202.336c-13.608,0-28-10.984-28-30.336h56C360,191.6,345.312,202.336,332,202.336z"/>
	</g>
</g>
<g>
</g>
<g>
</g>
<g>
</g>
<g>
</g>
<g>
</g>
<g>
</g>
<g>
</g>
<g>
</g>
<g>
</g>
<g>
</g>
<g>
</g>
<g>
</g>
<g>
</g>
<g>
</g>
<g>
</g>
</svg>
